<?xml version="1.0" encoding="UTF-8"?>
<svg width="235px" height="237px" viewBox="0 0 235 237" version="1.1" xmlns="http://www.w3.org/2000/svg" xmlns:xlink="http://www.w3.org/1999/xlink">
    <title>Group 2 Copy@1x</title>
    <defs>
        <rect id="path-1" x="0" y="7.10542736e-15" width="235" height="237" rx="36.72"></rect>
        <filter color-interpolation-filters="auto" id="filter-3">
            <feColorMatrix in="SourceGraphic" type="matrix" values="0 0 0 0 1.000000 0 0 0 0 1.000000 0 0 0 0 1.000000 0 0 0 1.000000 0"></feColorMatrix>
        </filter>
    </defs>
    <g id="Page-1" stroke="none" stroke-width="1" fill="none" fill-rule="evenodd">
        <g id="Style-tile" transform="translate(-83.000000, -108.000000)">
            <g id="Group-2-Copy" transform="translate(83.000000, 108.000000)">
                <rect id="Rectangle" fill="#1EBCF7" x="3.40336393e-13" y="7.10542736e-15" width="235" height="237" rx="36.72"></rect>
                <mask id="mask-2" fill="white">
                    <use xlink:href="#path-1"></use>
                </mask>
                <use id="Rectangle" fill="#1EBCF7" xlink:href="#path-1"></use>
                <g filter="url(#filter-3)" id="Group" opacity="0.276473272" stroke-linecap="square">
                    <g mask="url(#mask-2)">
                        <g transform="translate(116.941844, 118.418602) rotate(-15.000000) translate(-116.941844, -118.418602) translate(-17.139784, -18.241294)" stroke="#000000" stroke-width="6.48">
                            <line x1="72.5290548" y1="0.11292436" x2="73.8897414" y2="242.038395" id="Line"></line>
                            <line x1="-2.26890929e-13" y1="195.161981" x2="239.699867" y2="194.975076" id="Line-Copy-2"></line>
                            <line x1="186.259276" y1="28.1638836" x2="186.647914" y2="273.319793" id="Line-Copy"></line>
                            <line x1="29.7776123" y1="77.748029" x2="268.163256" y2="78.3263501" id="Line-Copy-3"></line>
                        </g>
                    </g>
                </g>
                <path d="M24.5304968,180.386409 C34.8894165,165.968409 50.0441324,149.051289 65.3906802,133.287609 C66.7335031,141.361689 68.2681579,149.243529 69.9946445,156.740889 C74.5986089,175.772649 82.2718828,180.770889 89.7533248,181.347609 C91.8634751,181.539849 92.8226343,180.001929 91.4798114,177.887289 C84.7656968,166.352889 80.5453961,142.707369 77.4760866,120.792009 C89.9451566,108.296409 101.838731,96.9542489 110.662996,88.4956889 C122.556571,77.1535289 124.474889,67.3492889 123.323898,61.9665689 C122.748403,59.4674489 121.213748,58.5062489 118.911766,60.6208889 C113.096232,66.0170994 105.285505,73.6551041 96.5996934,82.3443816 L94.9611224,83.9856501 C90.0162852,88.9446704 84.8167164,94.2127769 79.5617712,99.5780826 L77.8083453,101.369827 C77.5158569,101.668954 77.2232661,101.968309 76.9306068,102.267854 L75.1741044,104.067129 L75.1741044,104.067129 C73.4476178,92.5327289 71.912963,82.7284889 70.3783082,77.1535289 C66.7335031,64.4656889 60.4030522,60.8131289 55.607256,60.0441689 C53.6889375,59.6596889 52.7297783,60.8131289 53.113442,62.7355289 C57.3337426,79.4604089 60.0193885,98.4921689 62.7050343,116.947209 C45.8238318,134.825529 30.8609477,151.550409 25.6814879,159.816729 C19.7347006,169.044249 19.7347006,175.772649 21.4611872,180.001929 C22.0366828,181.539849 23.3795057,181.924329 24.5304968,180.386409 Z" id="X" fill="#FFFFFF" fill-rule="nonzero" mask="url(#mask-2)"></path>
                <path d="M199.906339,145.493682 C214.293728,118.964562 219.66502,81.0932817 195.877871,70.7123217 C190.506579,65.1373617 180.914986,63.0227217 169.788739,66.8675217 C148.111741,74.5571217 112.239185,110.121522 112.239185,151.068642 C112.239185,166.832322 118.377804,181.250322 134.108016,187.017522 C160.197147,196.629522 184.36796,174.137442 199.906339,145.493682 Z M134.491679,179.712402 C121.447114,174.137442 121.830778,141.648882 140.246635,113.005122 C158.278829,84.9380817 182.641473,71.8657617 192.041234,75.3260817 C202.591985,79.1708817 203.359313,108.006882 185.902615,140.110962 C169.788739,169.715922 147.152581,185.095122 134.491679,179.712402 Z" id="O" fill="#FFFFFF" fill-rule="nonzero" mask="url(#mask-2)"></path>
            </g>
        </g>
    </g>
</svg>